<?xml version="1.0" encoding="UTF-8" standalone="no"?>
<!DOCTYPE svg PUBLIC "-//W3C//DTD SVG 1.1//EN"
 "http://www.w3.org/Graphics/SVG/1.1/DTD/svg11.dtd">
<!-- Generated by graphviz version 8.0.4 (20230422.2207)
 -->
<!-- Pages: 1 -->
<svg width="290pt" height="356pt"
 viewBox="0.00 0.00 289.85 356.00" xmlns="http://www.w3.org/2000/svg" xmlns:xlink="http://www.w3.org/1999/xlink">
<g id="graph0" class="graph" transform="scale(1 1) rotate(0) translate(4 352)">
<polygon fill="white" stroke="none" points="-4,4 -4,-352 285.85,-352 285.85,4 -4,4"/>
<g id="clust1" class="cluster">
<title>cluster_11866589496333437817596138325288528079218</title>
<polygon fill="#ffa300" stroke="#ffa300" points="8,-8 8,-284 236,-284 236,-8 8,-8"/>
</g>
<g id="clust2" class="cluster">
<title>cluster_128720293713112185604601727255793168329960</title>
<polygon fill="#00ff47" stroke="#00ff47" points="16,-16 16,-212 228,-212 228,-16 16,-16"/>
</g>
<!-- node_&#45;1 -->
<g id="node1" class="node">
<title>node_&#45;1</title>
<polygon fill="yellow" stroke="yellow" points="180,-348 78.15,-330 180,-312 281.85,-330 180,-348"/>
<text text-anchor="middle" x="180" y="-324.57" font-family="Times New Roman,serif" font-size="14.00">ENTRY POINT</text>
</g>
<!-- node_11866589496333437817596138325288528079218 -->
<g id="node2" class="node">
<title>node_11866589496333437817596138325288528079218</title>
<polygon fill="lightgrey" stroke="black" points="227.75,-276 132.25,-276 132.25,-240 227.75,-240 227.75,-276"/>
<text text-anchor="middle" x="180" y="-252.57" font-family="Times New Roman,serif" font-size="14.00">SetRegister(1)</text>
</g>
<!-- node_&#45;1&#45;&gt;node_11866589496333437817596138325288528079218 -->
<g id="edge1" class="edge">
<title>node_&#45;1&#45;&gt;node_11866589496333437817596138325288528079218</title>
<path fill="none" stroke="black" d="M180,-311.7C180,-304.24 180,-295.32 180,-286.97"/>
<polygon fill="black" stroke="black" points="183.5,-287.1 180,-277.1 176.5,-287.1 183.5,-287.1"/>
</g>
<!-- node_128720293713112185604601727255793168329960 -->
<g id="node3" class="node">
<title>node_128720293713112185604601727255793168329960</title>
<polygon fill="yellow" stroke="yellow" points="186,-204 151.89,-186 186,-168 220.11,-186 186,-204"/>
<text text-anchor="middle" x="186" y="-180.57" font-family="Times New Roman,serif" font-size="14.00">For</text>
</g>
<!-- node_11866589496333437817596138325288528079218&#45;&gt;node_128720293713112185604601727255793168329960 -->
<g id="edge2" class="edge">
<title>node_11866589496333437817596138325288528079218&#45;&gt;node_128720293713112185604601727255793168329960</title>
<path fill="none" stroke="black" d="M181.48,-239.7C182.14,-232.04 182.93,-222.85 183.66,-214.3"/>
<polygon fill="black" stroke="black" points="187.21,-214.88 184.58,-204.62 180.23,-214.29 187.21,-214.88"/>
</g>
<!-- node_155951543648541350153104139075856788019062 -->
<g id="node4" class="node">
<title>node_155951543648541350153104139075856788019062</title>
<polygon fill="lightgrey" stroke="black" points="133.5,-204 24.5,-204 24.5,-168 133.5,-168 133.5,-204"/>
<text text-anchor="middle" x="79" y="-180.57" font-family="Times New Roman,serif" font-size="14.00">IncrementTape()</text>
</g>
<!-- node_128720293713112185604601727255793168329960&#45;&gt;node_155951543648541350153104139075856788019062 -->
<g id="edge5" class="edge">
<title>node_128720293713112185604601727255793168329960&#45;&gt;node_155951543648541350153104139075856788019062</title>
<path fill="none" stroke="black" d="M150.9,-186C148.84,-186 146.79,-186 144.74,-186"/>
<polygon fill="black" stroke="black" points="144.75,-182.5 134.75,-186 144.75,-189.5 144.75,-182.5"/>
</g>
<!-- node_19548112464019961561545086326702871058722 -->
<g id="node5" class="node">
<title>node_19548112464019961561545086326702871058722</title>
<polygon fill="lightgrey" stroke="black" points="150.12,-132 23.88,-132 23.88,-96 150.12,-96 150.12,-132"/>
<text text-anchor="middle" x="87" y="-108.58" font-family="Times New Roman,serif" font-size="14.00">IncrementRegister()</text>
</g>
<!-- node_155951543648541350153104139075856788019062&#45;&gt;node_19548112464019961561545086326702871058722 -->
<g id="edge3" class="edge">
<title>node_155951543648541350153104139075856788019062&#45;&gt;node_19548112464019961561545086326702871058722</title>
<path fill="none" stroke="black" d="M80.98,-167.7C81.83,-160.24 82.85,-151.32 83.8,-142.97"/>
<polygon fill="black" stroke="black" points="87.39,-143.44 85.05,-133.1 80.43,-142.64 87.39,-143.44"/>
</g>
<!-- node_2031831030777162441302736694734967140012 -->
<g id="node6" class="node">
<title>node_2031831030777162441302736694734967140012</title>
<polygon fill="lightgrey" stroke="black" points="119,-60 55,-60 55,-24 119,-24 119,-60"/>
<text text-anchor="middle" x="87" y="-36.58" font-family="Times New Roman,serif" font-size="14.00">Move(1)</text>
</g>
<!-- node_19548112464019961561545086326702871058722&#45;&gt;node_2031831030777162441302736694734967140012 -->
<g id="edge4" class="edge">
<title>node_19548112464019961561545086326702871058722&#45;&gt;node_2031831030777162441302736694734967140012</title>
<path fill="none" stroke="black" d="M87,-95.7C87,-88.24 87,-79.32 87,-70.97"/>
<polygon fill="black" stroke="black" points="90.5,-71.1 87,-61.1 83.5,-71.1 90.5,-71.1"/>
</g>
</g>
</svg>
